<mxfile host="Electron" modified="2024-02-24T11:03:33.774Z" agent="Mozilla/5.0 (Windows NT 10.0; Win64; x64) AppleWebKit/537.36 (KHTML, like Gecko) draw.io/22.1.11 Chrome/114.0.5735.289 Electron/25.9.8 Safari/537.36" etag="zjI63E6YAdUluU8el9tm" version="22.1.11" type="device">
  <diagram name="페이지-1" id="0eDHYNmw8ernBHpb_505">
    <mxGraphModel dx="1615" dy="2160" grid="1" gridSize="10" guides="1" tooltips="1" connect="1" arrows="1" fold="1" page="1" pageScale="1" pageWidth="827" pageHeight="1169" math="0" shadow="0">
      <root>
        <mxCell id="0" />
        <mxCell id="1" parent="0" />
        <mxCell id="EYgK_DZXR9nDWSk7wXwd-1" value="7" style="rounded=0;whiteSpace=wrap;html=1;verticalAlign=bottom;" vertex="1" parent="1">
          <mxGeometry x="40" y="80" width="40" height="280" as="geometry" />
        </mxCell>
        <mxCell id="EYgK_DZXR9nDWSk7wXwd-2" value="4" style="rounded=0;whiteSpace=wrap;html=1;verticalAlign=bottom;" vertex="1" parent="1">
          <mxGeometry x="80" y="200" width="40" height="160" as="geometry" />
        </mxCell>
        <mxCell id="EYgK_DZXR9nDWSk7wXwd-3" value="1" style="rounded=0;whiteSpace=wrap;html=1;verticalAlign=bottom;" vertex="1" parent="1">
          <mxGeometry x="120" y="320" width="40" height="40" as="geometry" />
        </mxCell>
        <mxCell id="EYgK_DZXR9nDWSk7wXwd-4" value="16" style="rounded=0;whiteSpace=wrap;html=1;verticalAlign=bottom;" vertex="1" parent="1">
          <mxGeometry x="160" y="-280" width="40" height="640" as="geometry" />
        </mxCell>
        <mxCell id="EYgK_DZXR9nDWSk7wXwd-5" value="8" style="rounded=0;whiteSpace=wrap;html=1;verticalAlign=bottom;" vertex="1" parent="1">
          <mxGeometry x="200" y="40" width="40" height="320" as="geometry" />
        </mxCell>
        <mxCell id="EYgK_DZXR9nDWSk7wXwd-6" value="2" style="rounded=0;whiteSpace=wrap;html=1;verticalAlign=bottom;" vertex="1" parent="1">
          <mxGeometry y="280" width="40" height="80" as="geometry" />
        </mxCell>
        <mxCell id="EYgK_DZXR9nDWSk7wXwd-7" value="12" style="rounded=0;whiteSpace=wrap;html=1;verticalAlign=bottom;" vertex="1" parent="1">
          <mxGeometry x="240" y="280" width="40" height="80" as="geometry" />
        </mxCell>
        <mxCell id="EYgK_DZXR9nDWSk7wXwd-8" value="4" style="rounded=0;whiteSpace=wrap;html=1;verticalAlign=bottom;" vertex="1" parent="1">
          <mxGeometry x="280" y="200" width="40" height="160" as="geometry" />
        </mxCell>
      </root>
    </mxGraphModel>
  </diagram>
</mxfile>
